<svg xmlns="http://www.w3.org/2000/svg" xmlns:xlink="http://www.w3.org/1999/xlink" width="72" height="16" viewBox="0 0 72 16"><g fill="none" fill-rule="evenodd"><path style="fill: #000" d="M70.0355571,15.822208 L70.0355571,0.2448 L72,0.2448 L72,15.822208 L70.0355571,15.822208 Z M61.5776143,0.244864 L64.2676179,0.244864 L64.2676179,15.822304 L62.3701286,15.822304 L62.3701286,2.868704 L57.6152357,14.521312 L55.6954071,14.521312 L50.9405143,2.868704 L50.9405143,15.822304 L49.043025,15.822304 L49.043025,0.244864 L51.7330286,0.244864 L56.6553214,12.349568 L61.5776143,0.244864 Z M36.8866607,12.184192 L37.4997214,10.519488 L41.0092393,10.519488 L38.2970893,3.022944 L33.6426429,15.82224 L31.4994536,15.82224 L37.504575,0.244832 L39.0671036,0.244832 L45.072225,15.82224 L42.9403821,15.82224 L41.6230071,12.184192 L36.8866607,12.184192 Z M29.552175,13.981152 L28.8739607,15.822208 L20.5233429,15.822208 L20.5233429,0.2448 L22.4877857,0.2448 L22.4877857,13.981152 L29.552175,13.981152 Z M8.09971071,7.111104 L16.1999679,7.111104 L16.1999679,15.822208 L14.4000321,15.822208 L14.4000321,13.019904 C12.9140036,14.835904 10.6423071,16 8.09971071,16 C3.633525,16 0,12.4112 0,8 C0,3.5888 3.633525,0 8.09971071,0 C10.3329,0 12.3578357,0.897248 13.8244179,2.345792 L12.5522357,3.602304 C11.4114214,2.475552 9.83648571,1.777792 8.09971071,1.777792 C4.62603214,1.777792 1.79993571,4.569056 1.79993571,8 C1.79993571,11.430944 4.62603214,14.222208 8.09971071,14.222208 C11.267775,14.222208 13.8960643,11.900096 14.3341714,8.888896 L8.09971071,8.888896 L8.09971071,7.111104 Z"></path></g></svg>
